<svg width="203" height="71" viewBox="0 0 203 71" fill="none" xmlns="http://www.w3.org/2000/svg">
<path d="M54.4764 45.7329C54.4175 45.4833 54.3664 45.2259 54.2856 44.9978V44.9983C53.972 43.974 53.4389 43.0308 52.7231 42.2345C51.6518 41.0467 50.2178 40.248 48.6457 39.964C48.7628 38.6778 48.8728 37.1932 48.9685 35.5541L49.1445 32.0487L49.2177 30.1524C49.2407 29.7607 49.2407 29.368 49.2177 28.9764L49.1297 28.3294L48.9828 27.6902V27.6907C48.5981 26.3312 47.8302 25.1116 46.7712 24.1785C45.7122 23.245 44.4076 22.6375 43.0131 22.4283C42.1966 22.3442 41.3765 22.3073 40.5558 22.3181C37.6224 22.274 34.5273 22.252 31.4689 22.252C28.4105 22.252 25.3446 22.252 22.382 22.3109H22.3815C21.5614 22.3012 20.7408 22.3381 19.9248 22.4211C18.5271 22.6257 17.2179 23.2301 16.1549 24.1627C15.0923 25.0946 14.3203 26.3147 13.9325 27.6759C13.8184 28.0993 13.7396 28.5325 13.6982 28.9693C13.6741 29.361 13.6741 29.7537 13.6982 30.1453L13.7713 32.0416L13.9473 35.5471C14.0353 37.0757 14.1381 38.4865 14.2405 39.6775C13.1912 39.859 12.192 40.2599 11.307 40.853C9.39884 42.1249 8.15608 44.1837 7.91877 46.468V47.2764V55.2871C7.91877 55.5224 7.91877 55.8161 7.96277 56.0806C8.00676 56.3452 8.0436 56.6174 8.0876 56.8819C8.54751 58.9895 9.8812 60.8016 11.7547 61.8649C12.6561 62.3801 13.6553 62.7005 14.6881 62.8056C14.9449 62.8056 15.1941 62.8056 15.4217 62.8425H17.196L21.5378 62.7764C19.5652 64.7531 17.6067 67.9208 17.4968 69.7069L17.4973 69.7064C17.748 69.9689 18.0283 70.2006 18.3332 70.3974C18.5757 70.5958 18.8418 70.7635 19.1252 70.8973C21.3256 70.0299 24.8239 65.3484 25.3078 62.7175C29.7816 62.6365 33.9256 62.534 37.5998 62.416C37.8346 64.9665 41.5017 69.9858 43.8049 70.8901C44.1297 70.7301 44.4352 70.5327 44.714 70.3021C44.9826 70.1319 45.2292 69.9299 45.4476 69.6992C45.3305 67.7444 43.0273 64.202 40.9005 62.2909C43.0272 62.2099 44.9488 62.1295 46.6503 62.0336V62.0341C47.1409 61.9239 47.4617 61.4512 47.3839 60.9534C47.4039 60.5018 47.0928 60.103 46.6503 60.0127C39.8518 59.6452 29.356 59.3806 17.2035 59.2115H15.1131V59.212C14.5939 59.1443 14.0946 58.969 13.6464 58.6973C12.7281 58.1436 12.0845 57.229 11.8717 56.1766L11.8205 55.7798V46.8648C11.9433 45.7749 12.546 44.7973 13.4632 44.1991C14.3805 43.6009 15.5168 43.4445 16.5609 43.7726C17.605 44.1007 18.4487 44.8789 18.8609 45.895C18.9617 46.1451 19.0303 46.4066 19.0661 46.6737C19.1111 46.9926 19.128 47.315 19.1178 47.6364V50.1649C19.1152 50.7098 19.3347 51.2327 19.7245 51.612C20.1149 51.9919 20.6423 52.1964 21.1861 52.1785C28.3075 52.1785 35.2232 52.1195 41.7219 52.0462H41.7659H41.7653C42.2652 52.0462 42.744 51.8442 43.0935 51.4859C43.4429 51.1281 43.6332 50.6436 43.6209 50.1428V47.2034C43.6071 46.1473 44.0184 45.1307 44.7623 44.3823C45.5056 43.6343 46.5186 43.2181 47.5719 43.2273C48.6258 43.2365 49.6311 43.6712 50.3612 44.4325C50.775 44.8498 51.0948 45.3512 51.2999 45.9023L51.4248 46.3211L51.5056 46.7471V47.7903L51.6228 52.3247L51.6888 54.4487V55.4335V55.4345C51.6893 55.6806 51.6724 55.9261 51.6376 56.1696C51.4734 57.137 51.0027 58.026 50.2952 58.7046C49.6531 59.3198 48.8489 59.7381 47.9777 59.9104C47.5515 60.0995 47.3029 60.5501 47.3689 61.0126C47.3669 61.2412 47.4579 61.4606 47.6216 61.6206C47.7848 61.78 48.0064 61.8656 48.2345 61.8579C49.5289 61.7446 50.7613 61.2509 51.7768 60.4394C52.9632 59.511 53.8109 58.217 54.19 56.757C54.279 56.3581 54.3353 55.9526 54.3583 55.5446C54.3583 55.1329 54.3583 54.8094 54.4023 54.4788L54.4683 52.3548L54.5855 47.8204V46.4901C54.5492 46.2624 54.5123 46.0051 54.476 45.7329L54.4764 45.7329ZM43.3211 40.993C42.2907 41.6605 41.4379 42.5684 40.8348 43.6387C40.2311 44.7461 39.9083 45.9851 39.896 47.2473V48.2613C34.5344 48.21 28.9387 48.1731 23.1963 48.1582V47.6364C23.2086 47.1155 23.1789 46.5947 23.1083 46.0784C23.028 45.5094 22.8801 44.9516 22.6678 44.4175C21.8242 42.2372 20.0383 40.5583 17.8128 39.854C17.3939 39.7253 16.9646 39.6345 16.5293 39.5817C16.6367 38.3765 16.7344 37.017 16.8224 35.5031L16.9984 31.9977L17.0716 30.1014H17.0721C17.0777 29.843 17.0997 29.5852 17.1381 29.3294C17.178 29.1053 17.2342 28.8839 17.3069 28.668C17.6307 27.7934 18.262 27.0671 19.0816 26.6252C19.5078 26.4017 19.9739 26.2643 20.4533 26.2207C20.8201 26.1766 21.678 26.2207 22.3968 26.2207C25.3302 26.2648 28.4254 26.2797 31.4838 26.2797C34.5421 26.2797 37.6081 26.2797 40.5707 26.2135C41.3043 26.2135 42.1474 26.1694 42.5143 26.2135H42.5148C42.9875 26.2643 43.4459 26.4063 43.8644 26.6324C44.6916 27.0809 45.326 27.8186 45.6462 28.705L45.749 29.0357L45.815 29.3735C45.8529 29.6319 45.8749 29.8918 45.881 30.1527L45.9542 32.049L46.123 35.5472C46.2182 37.1641 46.321 38.619 46.4382 39.8832C45.33 40.0165 44.2654 40.3958 43.3215 40.9931L43.3211 40.993Z" fill="#2C314B"/>
<path d="M50.4714 15.2266C50.5666 11.2653 50.6474 6.92933 50.6986 1.99781H50.6991C50.7047 1.49849 50.5123 1.01762 50.1645 0.660756C49.8166 0.303894 49.3413 0.0999244 48.8435 0.0942812H48.8067L41.4065 0.02046C40.8877 0.0168714 40.3889 0.219876 40.0201 0.585399C39.6512 0.950922 39.443 1.44869 39.4409 1.96851V5.7975L32.7007 0.439856C32.3487 0.155333 31.9098 0 31.4575 0C31.0053 0 30.5663 0.155333 30.2143 0.439856C17.7903 10.6185 6.18045 20.4523 0.144146 26.089C-0.112668 26.3314 -0.0170094 26.8825 0.356969 27.3014C0.730947 27.7202 1.14892 27.8381 1.40573 27.6541C7.91876 23.068 19.3745 14.2048 31.4537 4.57723L40.1446 11.603C40.541 11.9204 41.0419 12.0757 41.5479 12.0378C42.0533 12.0003 42.526 11.7722 42.8713 11.4C43.2161 11.0279 43.408 10.5383 43.4085 10.0302V3.97421H46.9436C47.0024 8.38406 47.0755 12.3816 47.1707 16.0199V16.108C47.1845 16.5786 47.4081 17.018 47.7795 17.3061C53.647 21.9066 58.2599 25.3906 61.5822 27.698C61.861 27.8964 62.367 27.698 62.6969 27.2423C63.0269 26.7865 63.0418 26.3826 62.8218 26.1693C59.9563 23.4646 55.8396 19.8171 50.4709 15.2263L50.4714 15.2266Z" fill="#2C314B"/>
<path d="M79.135 51V30.77H82.88V51H79.135ZM79.135 27.76V23.84H82.88V27.76H79.135ZM88.113 51V30.77H91.858V32.765C92.5347 32.135 93.2814 31.5983 94.098 31.155C94.9147 30.7117 95.813 30.49 96.793 30.49C97.6097 30.49 98.228 30.7 98.648 31.12C99.0914 31.54 99.3947 32.065 99.558 32.695C99.7447 33.325 99.838 33.9667 99.838 34.62V51H96.093V35.705C96.093 34.9817 95.988 34.4217 95.778 34.025C95.568 33.6283 95.1364 33.43 94.483 33.43C94.063 33.43 93.6197 33.5583 93.153 33.815C92.7097 34.0483 92.278 34.34 91.858 34.69V51H88.113ZM110.109 51.28C109.059 51.28 108.207 51.0817 107.554 50.685C106.924 50.2883 106.457 49.7283 106.154 49.005C105.874 48.2817 105.734 47.43 105.734 46.45V33.255H103.599V30.77H105.734V24.855H109.479V30.77H112.734V33.255H109.479V46.205C109.479 46.9983 109.607 47.57 109.864 47.92C110.121 48.2467 110.611 48.41 111.334 48.41C111.521 48.41 111.731 48.3983 111.964 48.375C112.221 48.3517 112.466 48.3283 112.699 48.305V51.07C112.232 51.14 111.801 51.1867 111.404 51.21C111.007 51.2567 110.576 51.28 110.109 51.28ZM122.311 51.28C120.724 51.28 119.499 50.9767 118.636 50.37C117.772 49.74 117.166 48.83 116.816 47.64C116.489 46.4267 116.326 44.945 116.326 43.195V38.575C116.326 36.7783 116.501 35.285 116.851 34.095C117.201 32.905 117.807 32.0067 118.671 31.4C119.557 30.7933 120.771 30.49 122.311 30.49C124.014 30.49 125.262 30.84 126.056 31.54C126.872 32.24 127.409 33.255 127.666 34.585C127.922 35.8917 128.051 37.4667 128.051 39.31V40.955H120.071V45.015C120.071 45.8317 120.141 46.4967 120.281 47.01C120.444 47.5233 120.689 47.9083 121.016 48.165C121.366 48.3983 121.809 48.515 122.346 48.515C122.906 48.515 123.326 48.3867 123.606 48.13C123.909 47.85 124.107 47.465 124.201 46.975C124.317 46.4617 124.376 45.8667 124.376 45.19V43.965H128.016V44.735C128.016 46.765 127.584 48.3633 126.721 49.53C125.857 50.6967 124.387 51.28 122.311 51.28ZM120.071 38.925H124.376V37.105C124.376 36.265 124.329 35.565 124.236 35.005C124.142 34.4217 123.944 33.99 123.641 33.71C123.361 33.4067 122.906 33.255 122.276 33.255C121.669 33.255 121.202 33.395 120.876 33.675C120.572 33.955 120.362 34.4333 120.246 35.11C120.129 35.7633 120.071 36.6733 120.071 37.84V38.925ZM132.772 51V30.77H136.517V33.64C137.264 32.4033 138.01 31.575 138.757 31.155C139.504 30.735 140.25 30.525 140.997 30.525C141.09 30.525 141.172 30.525 141.242 30.525C141.335 30.525 141.452 30.5367 141.592 30.56V34.69C141.312 34.5733 140.985 34.48 140.612 34.41C140.262 34.3167 139.9 34.27 139.527 34.27C138.944 34.27 138.407 34.41 137.917 34.69C137.45 34.9467 136.984 35.46 136.517 36.23V51H132.772ZM145.382 51V30.77H149.127V51H145.382ZM145.382 27.76V23.84H149.127V27.76H145.382ZM159.925 51.28C158.432 51.28 157.253 50.9767 156.39 50.37C155.527 49.7633 154.908 48.9 154.535 47.78C154.185 46.66 154.01 45.3417 154.01 43.825V37.945C154.01 36.4283 154.185 35.11 154.535 33.99C154.908 32.87 155.527 32.0067 156.39 31.4C157.253 30.7933 158.432 30.49 159.925 30.49C161.418 30.49 162.585 30.7933 163.425 31.4C164.288 32.0067 164.895 32.87 165.245 33.99C165.618 35.11 165.805 36.4283 165.805 37.945V43.825C165.805 45.3417 165.618 46.66 165.245 47.78C164.895 48.9 164.288 49.7633 163.425 50.37C162.585 50.9767 161.418 51.28 159.925 51.28ZM159.925 48.515C160.648 48.515 161.15 48.305 161.43 47.885C161.733 47.465 161.908 46.9167 161.955 46.24C162.025 45.54 162.06 44.8167 162.06 44.07V37.735C162.06 36.965 162.025 36.2417 161.955 35.565C161.908 34.8883 161.733 34.34 161.43 33.92C161.15 33.4767 160.648 33.255 159.925 33.255C159.202 33.255 158.688 33.4767 158.385 33.92C158.082 34.34 157.895 34.8883 157.825 35.565C157.778 36.2417 157.755 36.965 157.755 37.735V44.07C157.755 44.8167 157.778 45.54 157.825 46.24C157.895 46.9167 158.082 47.465 158.385 47.885C158.688 48.305 159.202 48.515 159.925 48.515ZM170.558 51V30.77H174.303V33.64C175.05 32.4033 175.797 31.575 176.543 31.155C177.29 30.735 178.037 30.525 178.783 30.525C178.877 30.525 178.958 30.525 179.028 30.525C179.122 30.525 179.238 30.5367 179.378 30.56V34.69C179.098 34.5733 178.772 34.48 178.398 34.41C178.048 34.3167 177.687 34.27 177.313 34.27C176.73 34.27 176.193 34.41 175.703 34.69C175.237 34.9467 174.77 35.46 174.303 36.23V51H170.558Z" fill="#555555"/>
</svg>
